# xmcd
#
# Track frame offsets: 
#        150
#        9689
#        17997
#        27032
#        34472
#        42511
#        57683
#        68326
#        79580
#        88071
#        95031
#        108381
#        112441
#        120647
#        130022
#
# Disc length: 1847 seconds
#
# Revision: 0
# Processed by: cddbd v1.5.2PL0 Copyright (c) Steve Scherf et al.
# Submitted via: ExactAudioCopy v0.95b4
#
DISCID=d007350f
DTITLE=Hasil Adkins - Night Life
DYEAR=2006
DGENRE=Rockabilly
TTITLE0=Night Life
TTITLE1=Hunchin' The Town
TTITLE2=Go Go Go
TTITLE3=Take A Walk With Me
TTITLE4=KFC
TTITLE5=So Blue
TTITLE6=C'mon Back Baby
TTITLE7=Walkin' In The Garden With Amy
TTITLE8=Raw Meat
TTITLE9=Hills Of West Virginia
TTITLE10=Look What You Done
TTITLE11=Alien Talk
TTITLE12=Come To Me
TTITLE13=Night Life Hunch
TTITLE14=The Moon
EXTD=
EXTT0=
EXTT1=
EXTT2=
EXTT3=
EXTT4=
EXTT5=
EXTT6=
EXTT7=
EXTT8=
EXTT9=
EXTT10=
EXTT11=
EXTT12=
EXTT13=
EXTT14=
PLAYORDER=
